# xmcd CD database file
#
# Track frame offsets:
#	150
#	12140
#	17009
#	24973
#	34471
#	43578
#	49422
#	56608
#	69303
#	77317
#	85559
#	92498
#	101520
#	108407
#	129157
#	132706
#	144168
#	150578
#	158576
#	167032
#	174205
#	188154
#	195728
#	202979
#	210803
#	217174
#	228960
#	248926
#
# Disc length: 3613 seconds
#
# Revision: 0
# Processed by: cddbd v1.5.2PL0 Copyright (c) Steve Scherf et al.
# Submitted via: CDex 1.51
#
DISCID=600e1b1c
DTITLE=Androgyn Netwok [Audiogenic - ADG] - Teknival >> Free Your Mind...Fuck The System [CD1]
DYEAR=2007
DGENRE=Hardteck
TTITLE0=Lenny Dee and Radium - Headbanger Boogie
TTITLE1=Tieum - Bitch Sexuality
TTITLE2=Tieum and Dr Macabre - Hatefull
TTITLE3=Tieum and Lenny Dee - Microtonik
TTITLE4=Radium - Sordid Backstage [Hellfish Remix]
TTITLE5=Radium - Multimedia 2003
TTITLE6=DJ Maissouille - Tsunami
TTITLE7=DJ Maissouille - Morpheus
TTITLE8=Radium - Dead Runner
TTITLE9=Venom and Goetia - Pump Up The Volume
TTITLE10=Venom and Goetia - Orphaned Land [Producer Remix]
TTITLE11=Radium - Twilight Zone
TTITLE12=DJ Sirio - Machine Soldier
TTITLE13=Radium - No Result
TTITLE14=Negative Network - Trust Me
TTITLE15=Radium - Playmobils [Rebel Audio Remix]
TTITLE16=Radium - Art Is Nasal
TTITLE17=Radium - Renegrade Return
TTITLE18=The Speed Freak - DJ Fuck
TTITLE19=Androgyn Network - Hard Sensation
TTITLE20=The Speed Freak - Hated
TTITLE21=Pattern J - Twist With My Grandma
TTITLE22=X-Fly and Frazzbass - Tormented By Kill
TTITLE23=Progamers - Again and Again
TTITLE24=Progamers - Dark Desire
TTITLE25=The Speed Freak - Steel Finger
TTITLE26=The Speed Freak - Devastator
TTITLE27=The Speed Freak - Make 'Em Die Slowly
EXTD=YEAR: 2007
EXTT0=
EXTT1=
EXTT2=
EXTT3=
EXTT4=
EXTT5=
EXTT6=
EXTT7=
EXTT8=
EXTT9=
EXTT10=
EXTT11=
EXTT12=
EXTT13=
EXTT14=
EXTT15=
EXTT16=
EXTT17=
EXTT18=
EXTT19=
EXTT20=
EXTT21=
EXTT22=
EXTT23=
EXTT24=
EXTT25=
EXTT26=
EXTT27=
PLAYORDER=
